<?xml version="1.0" standalone="no"?>
<!DOCTYPE svg PUBLIC "-//W3C//DTD SVG 20010904//EN"
 "http://www.w3.org/TR/2001/REC-SVG-20010904/DTD/svg10.dtd">
<svg version="1.0" xmlns="http://www.w3.org/2000/svg"
 width="600.000000pt" height="600.000000pt" viewBox="0 0 600.000000 600.000000"
 preserveAspectRatio="xMidYMid meet">
<metadata>
Created by potrace 1.14, written by Peter Selinger 2001-2017
</metadata>
<g transform="translate(0.000000,600.000000) scale(0.100000,-0.100000)"
fill="#000000" stroke="none">
<path d="M4930 5035 c0 -195 -3 -355 -7 -355 -4 0 -21 13 -38 29 -36 36 -136
86 -188 95 -49 9 -365 9 -414 0 -100 -18 -222 -106 -285 -204 -37 -59 -68
-160 -67 -219 l2 -46 7 55 c22 173 114 305 260 374 l65 31 225 0 225 0 60 -28
c33 -15 81 -46 106 -67 38 -32 49 -37 58 -26 8 10 11 114 9 360 l-3 346 48 0
47 0 0 -1060 0 -1060 -48 0 c-47 0 -48 1 -45 28 2 15 0 281 -5 592 -7 548 -8
566 -29 612 -30 66 -105 143 -172 175 -55 28 -58 28 -251 28 -179 0 -199 -2
-242 -22 -110 -51 -196 -168 -205 -280 l-6 -63 -773 0 c-534 0 -789 -3 -826
-11 -118 -25 -220 -105 -274 -214 l-29 -60 0 -875 0 -875 27 -57 c33 -70 103
-147 163 -179 42 -22 45 -27 45 -64 -1 -159 -102 -310 -258 -388 l-85 -42
-231 -3 c-155 -3 -249 0 -286 8 -164 36 -293 154 -341 310 -19 63 -20 91 -17
596 l3 530 37 75 c48 96 120 169 217 217 l75 37 259 5 259 5 1 83 2 82 -273 0
c-302 0 -331 -5 -452 -73 -85 -47 -200 -169 -244 -258 -70 -142 -69 -132 -73
-669 -6 -623 3 -687 108 -845 89 -133 220 -226 375 -265 66 -17 111 -20 313
-20 258 0 313 8 423 58 35 16 91 50 125 75 l63 47 2 -473 3 -472 88 0 88 0 -1
655 c0 360 3 677 6 703 l7 47 801 0 801 0 62 30 c75 35 142 101 178 173 l25
53 1 892 0 891 -27 56 c-55 111 -171 192 -301 210 l-53 7 0 39 c0 102 79 224
181 279 l64 35 195 0 c188 0 197 -1 244 -25 69 -35 133 -100 164 -168 l27 -57
3 -592 3 -593 59 0 60 0 0 1070 0 1070 -60 0 -60 0 0 -355z m-888 -1127 l3
-323 29 -52 c50 -92 152 -172 236 -186 39 -6 27 0 -53 28 -63 22 -141 99 -175
172 l-27 58 -3 313 -3 312 34 0 c62 0 129 -31 183 -84 89 -90 84 -33 84 -976
0 -930 4 -880 -76 -969 -26 -29 -65 -58 -96 -72 l-53 -24 -781 -3 -781 -3 -7
696 c-3 383 -4 700 -1 706 4 5 -32 9 -89 9 l-96 0 -2 -687 -3 -686 -48 47
c-27 26 -58 68 -70 94 l-22 47 0 845 0 845 23 47 c31 62 85 116 147 144 l50
24 797 0 797 0 3 -322z"/>
<path d="M3930 3916 c0 -274 2 -310 20 -367 35 -114 111 -211 212 -268 45 -26
62 -31 118 -29 l65 1 -65 7 c-149 15 -280 141 -326 315 -10 36 -14 130 -14
342 l0 292 48 4 47 3 -52 2 -53 2 0 -304z"/>
<path d="M2983 3641 l-271 -136 107 -51 107 -51 272 136 273 136 -78 39 c-149
74 -102 82 -410 -73z"/>
<path d="M3288 3486 l-267 -133 115 -57 c63 -31 120 -56 127 -55 6 0 131 60
277 133 l265 133 -112 57 c-62 31 -118 56 -125 56 -7 -1 -133 -61 -280 -134z"/>
<path d="M3573 3294 l-273 -136 0 -274 0 -274 270 135 c214 107 271 140 275
157 3 13 4 137 3 276 l-3 253 -272 -137z"/>
<path d="M2687 3148 l2 -273 253 -127 c139 -70 256 -127 261 -127 4 -1 7 120
7 269 l0 270 -260 130 c-143 71 -261 130 -262 130 -2 0 -2 -123 -1 -272z"/>
<path d="M4332 3300 c0 -19 2 -27 5 -17 2 9 2 25 0 35 -3 9 -5 1 -5 -18z"/>
<path d="M4452 3308 c1 -36 2 -38 5 -11 l4 32 95 3 94 3 0 -37 0 -37 -102 -4
-103 -3 108 -2 107 -2 0 50 0 50 -105 0 -105 0 2 -42z"/>
</g>
</svg>
